HIERARCHY
ROOT hip
{
  OFFSET 0 0 0
  CHANNELS 6 Xposition Yposition Zposition Zrotation Yrotation Xrotation
  JOINT abdomen
  {
    OFFSET 0 20.6881 -0.73152
    CHANNELS 3 Zrotation Xrotation Yrotation
    JOINT chest
    {
      OFFSET 0 11.7043 -0.48768
      CHANNELS 3 Zrotation Xrotation Yrotation
      JOINT neck
      {
        OFFSET 0 22.1894 -2.19456
        CHANNELS 3 Zrotation Xrotation Yrotation
        JOINT head
        {
          OFFSET -0.24384 7.07133 1.2192
          CHANNELS 3 Zrotation Xrotation Yrotation
          JOINT leftEye
          {
            OFFSET 4.14528 8.04674 8.04672
            CHANNELS 3 Zrotation Xrotation Yrotation
            End Site
            {
              OFFSET 1 0 0
            }
          }
          JOINT rightEye
          {
            OFFSET -3.6576 8.04674 8.04672
            CHANNELS 3 Zrotation Xrotation Yrotation
            End Site
            {
              OFFSET 1 0 0
            }
          }
        }
      }
      JOINT rCollar
      {
        OFFSET -2.68224 19.2634 -4.8768
        CHANNELS 3 Zrotation Xrotation Yrotation
        JOINT rShldr
        {
          OFFSET -8.77824 -1.95073 1.46304
          CHANNELS 3 Zrotation Xrotation Yrotation
          JOINT rForeArm
          {
            OFFSET -28.1742 -1.7115 0.48768
            CHANNELS 3 Zrotation Xrotation Yrotation
            JOINT rHand
            {
              OFFSET -22.5879 0.773209 7.07136
              CHANNELS 3 Zrotation Xrotation Yrotation
              JOINT rThumb1
              {
                OFFSET -1.2192 -0.487915 3.41376
                CHANNELS 3 Zrotation Xrotation Yrotation
                JOINT rThumb2
                {
                  OFFSET -3.37035 -0.52449 3.41376
                  CHANNELS 3 Zrotation Xrotation Yrotation
                  End Site
                  {
                    OFFSET -1.78271 -1.18214 1.43049
                  }
                }
              }
              JOINT rIndex1
              {
                OFFSET -7.75947 0.938293 5.60832
                CHANNELS 3 Zrotation Xrotation Yrotation
                JOINT rIndex2
                {
                  OFFSET -2.54057 -0.884171 1.56538
                  CHANNELS 3 Zrotation Xrotation Yrotation
                  End Site
                  {
                    OFFSET -1.62519 -0.234802 1.16502
                  }
                }
              }
              JOINT rMid1
              {
                OFFSET -8.24714 1.18213 3.41376
                CHANNELS 3 Zrotation Xrotation Yrotation
                JOINT rMid2
                {
                  OFFSET -3.10165 -0.590103 1.0647
                  CHANNELS 3 Zrotation Xrotation Yrotation
                  End Site
                  {
                    OFFSET -2.48547 -0.328903 0.83742
                  }
                }
              }
              JOINT rRing1
              {
                OFFSET -8.82822 0.546677 1.51678
                CHANNELS 3 Zrotation Xrotation Yrotation
                JOINT rRing2
                {
                  OFFSET -2.60934 -0.819778 -0.0198488
                  CHANNELS 3 Zrotation Xrotation Yrotation
                  End Site
                  {
                    OFFSET -2.33842 -0.294052 0.168128
                  }
                }
              }
              JOINT rPinky1
              {
                OFFSET -8.27202 -0.0477905 -0.4584
                CHANNELS 3 Zrotation Xrotation Yrotation
                JOINT rPinky2
                {
                  OFFSET -1.82734 -0.647385 -0.700984
                  CHANNELS 3 Zrotation Xrotation Yrotation
                  End Site
                  {
                    OFFSET -1.69225 -0.51767 -0.607171
                  }
                }
              }
            }
          }
        }
      }
      JOINT lCollar
      {
        OFFSET 2.68224 19.2634 -4.8768
        CHANNELS 3 Zrotation Xrotation Yrotation
        JOINT lShldr
        {
          OFFSET 8.77824 -1.95073 1.46304
          CHANNELS 3 Zrotation Xrotation Yrotation
          JOINT lForeArm
          {
            OFFSET 28.1742 -1.7115 0.48768
            CHANNELS 3 Zrotation Xrotation Yrotation
            JOINT lHand
            {
              OFFSET 22.5879 0.773209 7.07136
              CHANNELS 3 Zrotation Xrotation Yrotation
              JOINT lThumb1
              {
                OFFSET 1.2192 -0.487915 3.41376
                CHANNELS 3 Zrotation Xrotation Yrotation
                JOINT lThumb2
                {
                  OFFSET 3.37035 -0.52449 3.41376
                  CHANNELS 3 Zrotation Xrotation Yrotation
                  End Site
                  {
                    OFFSET 1.78271 -1.18214 1.43049
                  }
                }
              }
              JOINT lIndex1
              {
                OFFSET 7.75947 0.938293 5.60832
                CHANNELS 3 Zrotation Xrotation Yrotation
                JOINT lIndex2
                {
                  OFFSET 2.54057 -0.884171 1.56538
                  CHANNELS 3 Zrotation Xrotation Yrotation
                  End Site
                  {
                    OFFSET 1.62519 -0.234802 1.16502
                  }
                }
              }
              JOINT lMid1
              {
                OFFSET 8.24714 1.18213 3.41376
                CHANNELS 3 Zrotation Xrotation Yrotation
                JOINT lMid2
                {
                  OFFSET 3.10165 -0.590103 1.0647
                  CHANNELS 3 Zrotation Xrotation Yrotation
                  End Site
                  {
                    OFFSET 2.48547 -0.328903 0.83742
                  }
                }
              }
              JOINT lRing1
              {
                OFFSET 8.82822 0.546677 1.51678
                CHANNELS 3 Zrotation Xrotation Yrotation
                JOINT lRing2
                {
                  OFFSET 2.60934 -0.819778 -0.0198488
                  CHANNELS 3 Zrotation Xrotation Yrotation
                  End Site
                  {
                    OFFSET 2.33842 -0.294052 0.168128
                  }
                }
              }
              JOINT lPinky1
              {
                OFFSET 8.27202 -0.0477905 -0.4584
                CHANNELS 3 Zrotation Xrotation Yrotation
                JOINT lPinky2
                {
                  OFFSET 1.82734 -0.647385 -0.700984
                  CHANNELS 3 Zrotation Xrotation Yrotation
                  End Site
                  {
                    OFFSET 1.69225 -0.51767 -0.607171
                  }
                }
              }
            }
          }
        }
      }
    }
  }
  JOINT rButtock
  {
    OFFSET -8.77824 4.35084 1.2192
    CHANNELS 3 Zrotation Xrotation Yrotation
    JOINT rThigh
    {
      OFFSET 0 -1.70687 -2.19456
      CHANNELS 3 Zrotation Xrotation Yrotation
      JOINT rShin
      {
        OFFSET 0 -36.8199 0.73152
        CHANNELS 3 Zrotation Xrotation Yrotation
        JOINT rFoot
        {
          OFFSET 0.73152 -45.1104 -5.12064
          CHANNELS 3 Zrotation Xrotation Yrotation
          End Site
          {
            OFFSET -1.1221 -3.69964 12.103
          }
        }
      }
    }
  }
  JOINT lButtock
  {
    OFFSET 8.77824 4.35084 1.2192
    CHANNELS 3 Zrotation Xrotation Yrotation
    JOINT lThigh
    {
      OFFSET 0 -1.70687 -2.19456
      CHANNELS 3 Zrotation Xrotation Yrotation
      JOINT lShin
      {
        OFFSET 0 -36.8199 0.73152
        CHANNELS 3 Zrotation Xrotation Yrotation
        JOINT lFoot
        {
          OFFSET -0.73152 -45.1104 -5.12064
          CHANNELS 3 Zrotation Xrotation Yrotation
          End Site
          {
            OFFSET 1.1221 -3.69964 12.103
          }
        }
      }
    }
  }
}
MOTION
Frames:	4
Frame Time:	0.00833333
-2.98159 84.2564 35.888 0.0 0.0 0.0 -1.24151 -0.00398119 -0.0340789 -0.342494 -0.00249264 -0.0593272 -3.56377e-14 0.0 -7.45443e-17 -1.06002e-13 3.18055e-15 -2.14315e-16 -0.0 0.0 0.0 -0.0 0.0 0.0 -1.74456e-14 -6.50321e-17 1.49089e-16 -3.6985e-13 -1.63997e-15 -1.19271e-15 -6.39222e-12 1.864e-12 5.40694e-14 -7.31465e-11 -2.17388e-12 -2.92611e-13 -1.72546e-10 -6.70497e-13 -4.77083e-13 -2.97978e-10 -1.15772e-12 -8.22173e-13 -1.72541e-10 -6.69507e-13 -4.86625e-13 7.73091 5.47488 0.417314 -1.72547e-10 -6.70302e-13 -4.80264e-13 2.90554 0.965183 0.102902 -1.7254e-10 -6.70401e-13 -4.77878e-13 10.2786 0.731801 0.0259123 -1.72555e-10 -6.66326e-13 -4.70722e-13 2.22167 -0.733487 -0.20892 -1.7641e-14 -6.13437e-17 -2.48481e-16 -3.73424e-13 -1.35422e-15 -2.98177e-15 -6.39048e-12 -1.96022e-12 3.18055e-14 -7.31483e-11 1.66221e-12 -2.51264e-13 -1.72538e-10 -6.46694e-13 -4.83444e-13 -2.97956e-10 -1.11637e-12 -8.19788e-13 -1.7254e-10 -6.4605e-13 -4.73903e-13 -7.73091 5.47488 -0.417314 -1.72536e-10 -6.46945e-13 -4.80264e-13 -2.90554 0.965183 -0.102902 -1.72546e-10 -6.46547e-13 -4.78673e-13 -10.2786 0.731801 -0.0259123 -1.72539e-10 -6.4764e-13 -4.89805e-13 -2.22167 -0.733487 0.20892 -2.03217e-16 0.0 -3.88251e-19 -0.453828 -1.92099 -0.00952732 -0.00915569 -2.07857 -0.0755529 -0.487466 3.99699 0.136655 2.03217e-16 0.0 3.88251e-19 -1.43727 -5.97115 0.129662 -0.00126427 5.25795 -0.0454142 0.507813 0.710744 -0.0722738
-4.87227 83.8607 35.0926 -2.7309 -4.5232 1.1385 -0.467124 -0.320292 0.728884 -0.401011 -0.783864 0.161297 -0.519401 1.22721 -0.530937 1.40069 2.36375 -1.05674 -0.0 0.0 0.0 -0.0 0.0 0.0 -5.23362e-14 3.72e-15 9.81732e-15 23.5483 5.67193 -4.46071 -6.65537 -3.74328 9.49558 0.068871 5.82697 0.80371 -4.78873e-11 -1.99949e-10 2.88748e-10 -7.74989e-11 -3.49261e-10 4.97593e-10 -4.78803e-11 -1.99945e-10 2.88737e-10 7.73091 5.47488 0.417314 -4.7888e-11 -1.99948e-10 2.88745e-10 2.90554 0.965183 0.102902 -4.78793e-11 -1.99948e-10 2.88748e-10 10.2786 0.731801 0.0259123 -4.78922e-11 -1.99946e-10 2.88753e-10 2.22167 -0.733487 -0.20892 -5.24959e-14 3.72324e-15 9.47644e-15 -23.0043 8.97321 2.45749 5.61092 -2.90533 -8.34277 -0.0038245 1.37191 -0.19261 1.26487e-10 3.86612e-10 1.41844e-10 2.19072e-10 6.67769e-10 2.43545e-10 1.26484e-10 3.86614e-10 1.41857e-10 -7.73091 5.47488 -0.417314 1.26488e-10 3.86613e-10 1.41847e-10 -2.90554 0.965183 -0.102902 1.26479e-10 3.86613e-10 1.41848e-10 -10.2786 0.731801 -0.0259123 1.26487e-10 3.86613e-10 1.41837e-10 -2.22167 -0.733487 0.20892 -2.03217e-16 0.0 -3.88251e-19 -6.24315 -2.19795 -0.0105413 -0.00635341 -1.71603 -0.0550887 -0.233483 3.90925 0.0980375 2.03217e-16 0.0 3.88251e-19 1.31654 -6.36261 -1.7907 -0.020981 9.85489 -0.187077 0.903265 -5.1425 4.88922
-4.87979 83.8609 35.0936 -2.7566 -4.5287 1.133 0.361036 -0.655208 1.53622 -0.456485 -1.60949 0.394832 -1.04426 2.52457 -1.09264 2.97802 4.85896 -2.17893 -0.0 0.0 0.0 -0.0 0.0 0.0 -9.14664e-14 7.69857e-15 2.05059e-14 49.4166 11.5544 -9.32106 -12.3587 -7.3572 19.6602 -0.0396381 11.9796 1.68097 9.58139e-11 -4.32923e-10 6.14564e-10 1.7654e-10 -7.56002e-10 1.05893e-09 9.58228e-11 -4.32916e-10 6.14551e-10 7.73091 5.47488 0.417314 9.5813e-11 -4.3292e-10 6.14561e-10 2.90554 0.965183 0.102902 9.58239e-11 -4.3292e-10 6.14563e-10 10.2786 0.731801 0.0259123 9.58132e-11 -4.3292e-10 6.14566e-10 2.22167 -0.733487 -0.20892 -9.15893e-14 7.70137e-15 2.02263e-14 -48.1997 18.4024 5.26306 10.6321 -5.77109 -17.2298 0.00217564 2.82371 -0.396811 4.58095e-10 8.20031e-10 3.03562e-10 7.92447e-10 1.41639e-09 5.21251e-10 4.58091e-10 8.20034e-10 3.03578e-10 -7.73091 5.47488 -0.417314 4.58097e-10 8.20033e-10 3.03563e-10 -2.90554 0.965183 -0.102902 4.58088e-10 8.20033e-10 3.03565e-10 -10.2786 0.731801 -0.0259123 4.58097e-10 8.20034e-10 3.03554e-10 -2.22167 -0.733487 0.20892 -2.03217e-16 0.0 -3.88251e-19 -12.3633 -2.49075 -0.0116137 -0.00367266 -1.33274 -0.0334661 0.034892 3.81647 0.0572211 2.03217e-16 0.0 3.88251e-19 4.19937 -6.76842 -3.8237 -0.0163731 14.7146 -0.342589 2.43679 -11.1902 10.2915
-4.88511 83.861 35.0937 -2.7729 -4.5409 1.1304 1.10692 -0.952253 2.25509 -0.49998 -2.34649 0.603007 -1.48986 3.68037 -1.59574 4.4652 7.08156 -3.1919 -0.0 0.0 0.0 -0.0 0.0 0.0 -1.22117e-13 1.129e-14 2.91538e-14 73.3645 16.5948 -13.9066 -16.3677 -9.99763 28.9047 -0.303816 17.4668 2.51469 2.0143e-10 -5.98506e-10 8.672e-10 3.6346e-10 -1.04547e-09 1.49442e-09 2.0144e-10 -5.98497e-10 8.67185e-10 7.73091 5.47488 0.417314 2.01429e-10 -5.98502e-10 8.67197e-10 2.90554 0.965183 0.102902 2.01442e-10 -5.98503e-10 8.67199e-10 10.2786 0.731801 0.0259123 2.01433e-10 -5.98505e-10 8.672e-10 2.22167 -0.733487 -0.20892 -1.22205e-13 1.12924e-14 2.89263e-14 -71.5488 26.7093 8.15762 14.3638 -7.97831 -25.2573 0.0162585 4.11555 -0.579158 7.24536e-10 1.16113e-09 4.265e-10 1.25313e-09 2.00554e-09 7.32274e-10 7.24531e-10 1.16113e-09 4.26518e-10 -7.73091 5.47488 -0.417314 7.24537e-10 1.16113e-09 4.265e-10 -2.90554 0.965183 -0.102902 7.24529e-10 1.16113e-09 4.26501e-10 -10.2786 0.731801 -0.0259123 7.24539e-10 1.16113e-09 4.26491e-10 -2.22167 -0.733487 0.20892 -2.03217e-16 0.0 -3.88251e-19 -17.8218 -2.75189 -0.0125711 -0.00152579 -0.990949 -0.0141876 0.274125 3.73377 0.0208279 2.03217e-16 0.0 3.88251e-19 6.74526 -7.12047 -5.64056 0.0115445 19.0483 -0.489296 4.8036 -16.3318 15.3884
